<svg aria-hidden="true" style="position:absolute;width:0;height:0;overflow:hidden" xmlns="http://www.w3.org/2000/svg">
  <defs>
    <symbol id="header_background_icon" viewBox="0 0 123 32">
      <path fill="#275562" style="fill: var(--color1, #275562)" d="M4.876 0h113.371c2.438 0 4.267 2.743 3.657 4.571l-6.095 23.771c-0.61 1.829-2.438 3.657-4.876 3.657h-98.743c-2.438 0-4.267-1.829-4.876-3.657l-6.095-23.771c-0.61-1.829 1.219-4.571 3.657-4.571z"></path>
    </symbol>
    <symbol id="header_mobile_menu_button" viewBox="0 0 48 32">
      <path d="M2.667 32c-0.756 0-1.388-0.256-1.899-0.768s-0.766-1.145-0.768-1.899c-0.002-0.754 0.254-1.387 0.768-1.899s1.147-0.768 1.899-0.768h42.667c0.755 0 1.389 0.256 1.901 0.768s0.767 1.145 0.765 1.899c-0.002 0.754-0.258 1.387-0.768 1.901s-1.143 0.769-1.899 0.765h-42.667zM2.667 18.667c-0.756 0-1.388-0.256-1.899-0.768s-0.766-1.145-0.768-1.899c-0.002-0.754 0.254-1.387 0.768-1.899s1.147-0.768 1.899-0.768h42.667c0.755 0 1.389 0.256 1.901 0.768s0.767 1.145 0.765 1.899c-0.002 0.754-0.258 1.388-0.768 1.901s-1.143 0.769-1.899 0.765h-42.667zM2.667 5.333c-0.756 0-1.388-0.256-1.899-0.768s-0.766-1.145-0.768-1.899c-0.002-0.754 0.254-1.387 0.768-1.899s1.147-0.768 1.899-0.768h42.667c0.755 0 1.389 0.256 1.901 0.768s0.767 1.145 0.765 1.899c-0.002 0.754-0.258 1.388-0.768 1.901s-1.143 0.769-1.899 0.765h-42.667z"></path>
    </symbol>
    <symbol id="burger_menu_close_btn" viewBox="0 0 32 32">
      <path stroke="currentColor" stroke-linejoin="miter" stroke-linecap="butt" stroke-miterlimit="4" stroke-width="2" d="M9.333 1.333c-2.122 0-4.157 0.843-5.657 2.343s-2.343 3.535-2.343 5.657v13.333c0 2.122 0.843 4.157 2.343 5.657s3.535 2.343 5.657 2.343h13.333c2.122 0 4.157-0.843 5.657-2.343s2.343-3.535 2.343-5.657v-13.333c0-2.122-0.843-4.157-2.343-5.657s-3.535-2.343-5.657-2.343h-13.333z"></path>
      <path stroke="currentColor" stroke-linejoin="miter" stroke-linecap="round" stroke-miterlimit="4" stroke-width="2" d="M10.053 10.053l11.893 11.893M21.947 10.053l-11.893 11.893"></path>
    </symbol>
    <symbol id="header_trapezoid" viewBox="0 0 124 32">
      <path d="M1.96 3.178c-1.376-2.080 0.116-4.855 2.609-4.855h114.515c2.511 0 3.999 2.808 2.589 4.886l-18.051 26.593c-0.582 0.858-1.552 1.372-2.589 1.372h-78.874c-1.050 0-2.030-0.527-2.609-1.403l-17.591-26.593z"></path>
    </symbol>
    <symbol id="accordeon_close" viewBox="0 0 32 32">
      <path fill="currentColor" d="M24 17.33h-16c-0.354 0-0.693-0.14-0.943-0.39s-0.391-0.589-0.391-0.943c0-0.354 0.14-0.693 0.391-0.943s0.589-0.391 0.943-0.391h16c0.354 0 0.693 0.14 0.943 0.391s0.391 0.589 0.391 0.943c0 0.354-0.14 0.693-0.391 0.943s-0.589 0.39-0.943 0.39z"></path>
      <path fill="none" stroke="currentColor" stroke-linejoin="miter" stroke-linecap="butt" stroke-miterlimit="4" stroke-width="0.4848" d="M5.818 0.242h20.364c3.079 0 5.576 2.496 5.576 5.576v20.364c0 3.079-2.496 5.576-5.576 5.576h-20.364c-3.079 0-5.576-2.496-5.576-5.576v-20.364c0-3.079 2.496-5.576 5.576-5.576z"></path>
    </symbol>
    <symbol id="accordeon_open" viewBox="0 0 32 32">
      <path fill="currentColor" d="M24 17.33h-6.667v6.667c0 0.354-0.14 0.693-0.391 0.943s-0.589 0.39-0.943 0.39-0.693-0.14-0.943-0.39c-0.25-0.25-0.391-0.589-0.391-0.943v-6.667h-6.667c-0.354 0-0.693-0.14-0.943-0.39s-0.391-0.589-0.391-0.943c0-0.354 0.14-0.693 0.391-0.943s0.589-0.391 0.943-0.391h6.667v-6.667c0-0.354 0.14-0.693 0.391-0.943s0.589-0.391 0.943-0.391 0.693 0.141 0.943 0.391c0.25 0.25 0.391 0.589 0.391 0.943v6.667h6.667c0.354 0 0.693 0.14 0.943 0.391s0.391 0.589 0.391 0.943c0 0.354-0.14 0.693-0.391 0.943s-0.589 0.39-0.943 0.39z"></path>
      <path fill="none" stroke="currentColor" stroke-linejoin="miter" stroke-linecap="butt" stroke-miterlimit="4" stroke-width="0.4848" d="M5.818 0.242h20.364c3.079 0 5.576 2.496 5.576 5.576v20.364c0 3.079-2.496 5.576-5.576 5.576h-20.364c-3.079 0-5.576-2.496-5.576-5.576v-20.364c0-3.079 2.496-5.576 5.576-5.576z"></path>
    </symbol>
    <symbol id="icon-Vector-3" viewBox="0 0 23 32">
      <path d="M18.609 2.552c0.134-0.144 0.238-0.314 0.307-0.5s0.102-0.383 0.097-0.582c-0.006-0.199-0.049-0.394-0.129-0.576s-0.193-0.345-0.335-0.481c-0.141-0.136-0.308-0.243-0.49-0.314s-0.375-0.104-0.57-0.099c-0.195 0.006-0.386 0.050-0.564 0.132s-0.338 0.197-0.471 0.342l-12.591 13.614c-0.26 0.281-0.405 0.653-0.405 1.039s0.145 0.758 0.405 1.039l12.591 13.615c0.133 0.148 0.293 0.267 0.471 0.351s0.371 0.131 0.567 0.138c0.196 0.007 0.392-0.026 0.575-0.096s0.352-0.178 0.494-0.316c0.143-0.138 0.257-0.303 0.337-0.486s0.123-0.381 0.127-0.581c0.004-0.2-0.030-0.4-0.102-0.586s-0.179-0.357-0.316-0.5l-11.631-12.577 11.631-12.575z"></path>
    </symbol>
    <symbol id="icon-page-up" viewBox="0 0 70 32">
      <path d="M12.056 29.669c-0.275 0.233-0.598 0.416-0.951 0.537s-0.73 0.179-1.108 0.169c-0.378-0.010-0.75-0.086-1.095-0.225s-0.656-0.338-0.916-0.585c-0.26-0.247-0.463-0.538-0.597-0.856s-0.199-0.656-0.188-0.996c0.011-0.34 0.096-0.675 0.25-0.985s0.375-0.59 0.65-0.824l25.905-21.998c0.534-0.454 1.242-0.707 1.977-0.707s1.443 0.253 1.977 0.707l25.908 21.998c0.281 0.232 0.508 0.512 0.667 0.823s0.249 0.648 0.262 0.991c0.013 0.343-0.049 0.684-0.183 1.005s-0.339 0.614-0.6 0.864c-0.262 0.249-0.576 0.449-0.924 0.588s-0.724 0.215-1.106 0.222c-0.381 0.008-0.76-0.053-1.115-0.179s-0.679-0.313-0.952-0.552l-23.933-20.322-23.927 20.322z"></path>
    </symbol>
    <symbol id="addictive_background_mobile_icon" viewBox="0 0 8 32">
      <path fill="#3b3074" style="fill: var(--color1, #3b3074)" d="M0 0l1.534 2.195 2.724 0.965 2.896-0.965 1.309-2.195v32h-8.463v-32z"></path>
    </symbol>
    <symbol id="icon-fluent_ios-arrow-24-filled" viewBox="0 0 68 32">
      <path d="M8.843 2.641c-0.287-0.242-0.625-0.432-0.995-0.558s-0.763-0.185-1.158-0.175c-0.395 0.010-0.784 0.089-1.145 0.234s-0.686 0.35-0.958 0.607c-0.272 0.256-0.484 0.558-0.625 0.888s-0.208 0.681-0.196 1.034c0.011 0.353 0.1 0.7 0.262 1.022s0.393 0.613 0.68 0.855l27.090 22.836c0.559 0.472 1.299 0.734 2.068 0.734s1.509-0.263 2.068-0.734l27.093-22.836c0.294-0.241 0.531-0.531 0.698-0.854s0.26-0.673 0.274-1.029-0.051-0.71-0.192-1.043c-0.141-0.333-0.354-0.638-0.628-0.897s-0.603-0.466-0.967-0.611-0.757-0.223-1.156-0.231c-0.399-0.008-0.795 0.055-1.166 0.185s-0.71 0.325-0.996 0.573l-25.028 21.095-25.022-21.095z"></path>
    </symbol>
    <symbol id="icon-fluent_ios-arrow-24-filled-1" viewBox="0 0 64 32">
      <path d="M8.352 28.617c-0.271 0.229-0.591 0.408-0.94 0.527s-0.721 0.175-1.094 0.166-0.741-0.084-1.082-0.221c-0.341-0.136-0.648-0.331-0.905-0.573s-0.457-0.527-0.59-0.839-0.196-0.643-0.186-0.976c0.011-0.333 0.095-0.661 0.247-0.965s0.371-0.579 0.642-0.807l25.585-21.567c0.528-0.445 1.227-0.694 1.953-0.694s1.425 0.248 1.953 0.694l25.588 21.567c0.277 0.227 0.501 0.502 0.659 0.807s0.246 0.636 0.259 0.972c0.013 0.336-0.048 0.671-0.181 0.985s-0.334 0.602-0.593 0.847c-0.259 0.244-0.569 0.44-0.913 0.577s-0.715 0.21-1.092 0.218c-0.377 0.007-0.751-0.052-1.102-0.175s-0.67-0.307-0.94-0.541l-23.638-19.923-23.632 19.923z"></path>
    </symbol>
  </defs>
</svg>