<svg aria-hidden="true" style="position:absolute;width:0;height:0;overflow:hidden" xmlns="http://www.w3.org/2000/svg">
  <defs>
    <symbol id="header_background_icon" viewBox="0 0 123 32">
      <path fill="#275562" style="fill: var(--color1, #275562)" d="M4.876 0h113.371c2.438 0 4.267 2.743 3.657 4.571l-6.095 23.771c-0.61 1.829-2.438 3.657-4.876 3.657h-98.743c-2.438 0-4.267-1.829-4.876-3.657l-6.095-23.771c-0.61-1.829 1.219-4.571 3.657-4.571z"></path>
    </symbol>
    <symbol id="header_mobile_menu_button" viewBox="0 0 48 32">
      <path d="M2.667 32c-0.756 0-1.388-0.256-1.899-0.768s-0.766-1.145-0.768-1.899c-0.002-0.754 0.254-1.387 0.768-1.899s1.147-0.768 1.899-0.768h42.667c0.755 0 1.389 0.256 1.901 0.768s0.767 1.145 0.765 1.899c-0.002 0.754-0.258 1.387-0.768 1.901s-1.143 0.769-1.899 0.765h-42.667zM2.667 18.667c-0.756 0-1.388-0.256-1.899-0.768s-0.766-1.145-0.768-1.899c-0.002-0.754 0.254-1.387 0.768-1.899s1.147-0.768 1.899-0.768h42.667c0.755 0 1.389 0.256 1.901 0.768s0.767 1.145 0.765 1.899c-0.002 0.754-0.258 1.388-0.768 1.901s-1.143 0.769-1.899 0.765h-42.667zM2.667 5.333c-0.756 0-1.388-0.256-1.899-0.768s-0.766-1.145-0.768-1.899c-0.002-0.754 0.254-1.387 0.768-1.899s1.147-0.768 1.899-0.768h42.667c0.755 0 1.389 0.256 1.901 0.768s0.767 1.145 0.765 1.899c-0.002 0.754-0.258 1.388-0.768 1.901s-1.143 0.769-1.899 0.765h-42.667z"></path>
    </symbol>
    <symbol id="burger_menu_close_btn" viewBox="0 0 32 32">
      <path stroke-linejoin="miter" stroke-linecap="butt" stroke-miterlimit="4" stroke-width="2" d="M9.333 1.333c-2.122 0-4.157 0.843-5.657 2.343s-2.343 3.535-2.343 5.657v13.333c0 2.122 0.843 4.157 2.343 5.657s3.535 2.343 5.657 2.343h13.333c2.122 0 4.157-0.843 5.657-2.343s2.343-3.535 2.343-5.657v-13.333c0-2.122-0.843-4.157-2.343-5.657s-3.535-2.343-5.657-2.343h-13.333z"></path>
      <path stroke-linejoin="miter" stroke-linecap="round" stroke-miterlimit="4" stroke-width="2" d="M10.053 10.053l11.893 11.893M21.947 10.053l-11.893 11.893"></path>
    </symbol>
    <symbol id="icon-Group-1" viewBox="0 0 32 32">
      <path stroke="currentColor" stroke-linejoin="miter" stroke-linecap="butt" stroke-miterlimit="4" stroke-width="2" d="M9.333 1.333c-2.122 0-4.157 0.843-5.657 2.343s-2.343 3.535-2.343 5.657v13.333c0 2.122 0.843 4.157 2.343 5.657s3.535 2.343 5.657 2.343h13.333c2.122 0 4.157-0.843 5.657-2.343s2.343-3.535 2.343-5.657v-13.333c0-2.122-0.843-4.157-2.343-5.657s-3.535-2.343-5.657-2.343h-13.333z"></path>
      <path stroke="currentColor" stroke-linejoin="miter" stroke-linecap="round" stroke-miterlimit="4" stroke-width="2" d="M10.053 10.053l11.893 11.893M21.947 10.053l-11.893 11.893"></path>
    </symbol>
  </defs>
</svg>