<svg width="24" height="25" viewBox="0 0 24 25" fill="none" xmlns="http://www.w3.org/2000/svg">
<path d="M12.7273 4.18725C12.8176 4.09178 12.8881 3.97947 12.9349 3.85674C12.9817 3.73401 13.0039 3.60327 13.0002 3.47196C12.9965 3.34066 12.9669 3.21138 12.9133 3.09149C12.8596 2.97161 12.7828 2.86347 12.6873 2.77325C12.5919 2.68303 12.4796 2.6125 12.3568 2.56569C12.2341 2.51887 12.1034 2.49669 11.9721 2.5004C11.8408 2.50411 11.7115 2.53365 11.5916 2.58733C11.4717 2.64101 11.3636 2.71778 11.2733 2.81325L2.77334 11.8132C2.59781 11.9989 2.5 12.2447 2.5 12.5002C2.5 12.7558 2.59781 13.0016 2.77334 13.1872L11.2733 22.1882C11.363 22.2858 11.4711 22.3646 11.5914 22.42C11.7117 22.4754 11.8419 22.5064 11.9743 22.5111C12.1067 22.5158 12.2387 22.4942 12.3626 22.4474C12.4866 22.4007 12.6 22.3298 12.6963 22.2388C12.7927 22.1479 12.8699 22.0387 12.9237 21.9176C12.9775 21.7965 13.0067 21.666 13.0095 21.5335C13.0124 21.4011 12.989 21.2694 12.9405 21.1461C12.8921 21.0228 12.8196 20.9103 12.7273 20.8153L4.87534 12.5002L12.7273 4.18725Z" fill="#FBFEF9"/>
</svg>
