<svg width="36" height="17" viewBox="0 0 36 17" fill="none" xmlns="http://www.w3.org/2000/svg">
<g clip-path="url(#clip0_120_855)">
<path d="M4.69801 1.4031C4.54535 1.27434 4.36577 1.17367 4.16952 1.10686C3.97327 1.04004 3.76419 1.00838 3.55423 1.01368C3.34427 1.01898 3.13754 1.06114 2.94583 1.13775C2.75413 1.21437 2.58121 1.32393 2.43694 1.46019C2.29268 1.59645 2.1799 1.75674 2.10503 1.9319C2.03017 2.10707 1.9947 2.29367 2.00064 2.48107C2.00658 2.66847 2.05382 2.85299 2.13965 3.0241C2.22549 3.19521 2.34824 3.34955 2.5009 3.47831L16.8925 15.6099C17.1894 15.8604 17.5824 16 17.991 16C18.3996 16 18.7927 15.8604 19.0896 15.6099L33.4827 3.47831C33.6387 3.3504 33.7647 3.19609 33.8533 3.02436C33.942 2.85262 33.9915 2.66688 33.999 2.47792C34.0065 2.28896 33.9719 2.10055 33.8971 1.92363C33.8224 1.74672 33.709 1.58482 33.5636 1.44735C33.4181 1.30988 33.2435 1.19957 33.0499 1.12283C32.8563 1.04609 32.6475 1.00446 32.4358 1.00034C32.224 0.996222 32.0134 1.02971 31.8162 1.09885C31.619 1.16799 31.4392 1.27141 31.2872 1.4031L17.991 12.6098L4.69801 1.4031Z" fill="#0C1729"/>
</g>
<defs>
<clipPath id="clip0_120_855">
<rect width="17" height="36" fill="white" transform="matrix(0 -1 1 0 0 17)"/>
</clipPath>
</defs>
</svg>
