<svg width="40" height="40" viewBox="0 0 40 40" fill="none" xmlns="http://www.w3.org/2000/svg">
<mask id="mask0_289_664" style="mask-type:alpha" maskUnits="userSpaceOnUse" x="8" y="3" width="31" height="34">
<path d="M37.5605 18.0005C39.1465 18.8732 39.1465 21.1267 37.5605 21.9995L12.1953 35.9574C10.6507 36.8074 8.75 35.7042 8.75 33.9579V6.04217C8.75 4.29571 10.6507 3.19269 12.1953 4.04269L37.5605 18.0005Z" fill="#C4C4C4"/>
</mask>
<g mask="url(#mask0_289_664)">
<path d="M5.7104 35.6427L21.5324 19.7318L5.97098 4.08301C5.35015 4.48098 4.91699 5.1681 4.91699 6.00185V33.9175C4.91699 34.6288 5.23228 35.2333 5.7104 35.6427Z" fill="url(#paint0_linear_289_664)"/>
<path d="M33.727 17.9594C35.3131 18.8321 35.3131 21.0855 33.727 21.9583L27.3279 25.4796L21.532 19.7309L27.0324 14.2754L33.727 17.9594Z" fill="url(#paint1_linear_289_664)"/>
<path d="M27.3285 25.4801L21.5325 19.7314L5.71045 35.6423C6.40622 36.2381 7.44685 36.4204 8.36242 35.9166L27.3285 25.4801Z" fill="url(#paint2_linear_289_664)"/>
<path d="M5.97046 4.0823L21.5319 19.7311L27.0322 14.2756L8.36178 4.00167C7.55453 3.55746 6.65007 3.64665 5.97046 4.0823Z" fill="url(#paint3_linear_289_664)"/>
</g>
<defs>
<linearGradient id="paint0_linear_289_664" x1="15.7631" y1="13.552" x2="5.00582" y2="24.3977" gradientUnits="userSpaceOnUse">
<stop stop-color="#00C3FF"/>
<stop offset="1" stop-color="#1BE2FA"/>
</linearGradient>
<linearGradient id="paint1_linear_289_664" x1="21.532" y1="19.731" x2="35.8396" y2="19.731" gradientUnits="userSpaceOnUse">
<stop stop-color="#FFCE00"/>
<stop offset="1" stop-color="#FFEA00"/>
</linearGradient>
<linearGradient id="paint2_linear_289_664" x1="5.37864" y1="37.5846" x2="24.4107" y2="22.3262" gradientUnits="userSpaceOnUse">
<stop stop-color="#DE2453"/>
<stop offset="1" stop-color="#FE3944"/>
</linearGradient>
<linearGradient id="paint3_linear_289_664" x1="6.30106" y1="2.3357" x2="24.4134" y2="17.1296" gradientUnits="userSpaceOnUse">
<stop stop-color="#11D574"/>
<stop offset="1" stop-color="#01F176"/>
</linearGradient>
</defs>
</svg>
