<svg width="66" height="66" viewBox="0 0 66 66" fill="none" xmlns="http://www.w3.org/2000/svg">
<rect width="66" height="66" rx="8" fill="#0C1729"/>
<g clip-path="url(#clip0_128_914)">
<path d="M18.5353 41.5432C18.3635 41.6891 18.1615 41.8032 17.9407 41.8789C17.7199 41.9546 17.4847 41.9905 17.2485 41.9845C17.0123 41.9785 16.7797 41.9307 16.5641 41.8439C16.3484 41.7571 16.1539 41.6329 15.9916 41.4785C15.8293 41.324 15.7024 41.1424 15.6182 40.9438C15.5339 40.7453 15.494 40.5338 15.5007 40.3215C15.5074 40.1091 15.5605 39.8999 15.6571 39.706C15.7537 39.5121 15.8918 39.3372 16.0635 39.1912L32.254 25.4421C32.588 25.1582 33.0302 25 33.4899 25C33.9495 25 34.3918 25.1582 34.7258 25.4421L50.9181 39.1912C51.0936 39.3362 51.2353 39.5111 51.335 39.7057C51.4347 39.9004 51.4904 40.1109 51.4989 40.325C51.5073 40.5392 51.4684 40.7527 51.3843 40.9532C51.3002 41.1537 51.1726 41.3372 51.009 41.493C50.8454 41.6488 50.649 41.7738 50.4312 41.8608C50.2133 41.9478 49.9785 41.995 49.7402 41.9996C49.502 42.0043 49.265 41.9663 49.0432 41.888C48.8214 41.8096 48.6191 41.6924 48.4481 41.5432L33.4899 28.8422L18.5353 41.5432Z" fill="#FBFEF9"/>
</g>
<defs>
<clipPath id="clip0_128_914">
<rect width="20" height="43" fill="white" transform="matrix(0 1 1 0 11.5 23)"/>
</clipPath>
</defs>
</svg>
