<svg aria-hidden="true" style="position:absolute;width:0;height:0;overflow:hidden" xmlns="http://www.w3.org/2000/svg">
  <defs>
    <symbol id="header_background_icon" viewBox="0 0 123 32">
      <path fill="#275562" style="fill: var(--color1, #275562)" d="M4.876 0h113.371c2.438 0 4.267 2.743 3.657 4.571l-6.095 23.771c-0.61 1.829-2.438 3.657-4.876 3.657h-98.743c-2.438 0-4.267-1.829-4.876-3.657l-6.095-23.771c-0.61-1.829 1.219-4.571 3.657-4.571z"></path>
    </symbol>
    <symbol id="header_mobile_menu_button" viewBox="0 0 48 32">
      <path d="M2.667 32c-0.756 0-1.388-0.256-1.899-0.768s-0.766-1.145-0.768-1.899c-0.002-0.754 0.254-1.387 0.768-1.899s1.147-0.768 1.899-0.768h42.667c0.755 0 1.389 0.256 1.901 0.768s0.767 1.145 0.765 1.899c-0.002 0.754-0.258 1.387-0.768 1.901s-1.143 0.769-1.899 0.765h-42.667zM2.667 18.667c-0.756 0-1.388-0.256-1.899-0.768s-0.766-1.145-0.768-1.899c-0.002-0.754 0.254-1.387 0.768-1.899s1.147-0.768 1.899-0.768h42.667c0.755 0 1.389 0.256 1.901 0.768s0.767 1.145 0.765 1.899c-0.002 0.754-0.258 1.388-0.768 1.901s-1.143 0.769-1.899 0.765h-42.667zM2.667 5.333c-0.756 0-1.388-0.256-1.899-0.768s-0.766-1.145-0.768-1.899c-0.002-0.754 0.254-1.387 0.768-1.899s1.147-0.768 1.899-0.768h42.667c0.755 0 1.389 0.256 1.901 0.768s0.767 1.145 0.765 1.899c-0.002 0.754-0.258 1.388-0.768 1.901s-1.143 0.769-1.899 0.765h-42.667z"></path>
    </symbol>
    <symbol id="burger_menu_close_btn" viewBox="0 0 32 32">
      <path stroke="currentColor" stroke-linejoin="miter" stroke-linecap="butt" stroke-miterlimit="4" stroke-width="2" d="M9.333 1.333c-2.122 0-4.157 0.843-5.657 2.343s-2.343 3.535-2.343 5.657v13.333c0 2.122 0.843 4.157 2.343 5.657s3.535 2.343 5.657 2.343h13.333c2.122 0 4.157-0.843 5.657-2.343s2.343-3.535 2.343-5.657v-13.333c0-2.122-0.843-4.157-2.343-5.657s-3.535-2.343-5.657-2.343h-13.333z"></path>
      <path stroke="currentColor" stroke-linejoin="miter" stroke-linecap="round" stroke-miterlimit="4" stroke-width="2" d="M10.053 10.053l11.893 11.893M21.947 10.053l-11.893 11.893"></path>
    </symbol>
    <symbol id="header_trapezoid" viewBox="0 0 124 32">
      <path d="M1.96 3.178c-1.376-2.080 0.116-4.855 2.609-4.855h114.515c2.511 0 3.999 2.808 2.589 4.886l-18.051 26.593c-0.582 0.858-1.552 1.372-2.589 1.372h-78.874c-1.050 0-2.030-0.527-2.609-1.403l-17.591-26.593z"></path>
    </symbol>
    <symbol id="accordeon_close" viewBox="0 0 32 32">
      <path fill="currentColor" d="M24 17.33h-16c-0.354 0-0.693-0.14-0.943-0.39s-0.391-0.589-0.391-0.943c0-0.354 0.14-0.693 0.391-0.943s0.589-0.391 0.943-0.391h16c0.354 0 0.693 0.14 0.943 0.391s0.391 0.589 0.391 0.943c0 0.354-0.14 0.693-0.391 0.943s-0.589 0.39-0.943 0.39z"></path>
      <path fill="none" stroke="currentColor" stroke-linejoin="miter" stroke-linecap="butt" stroke-miterlimit="4" stroke-width="0.4848" d="M5.818 0.242h20.364c3.079 0 5.576 2.496 5.576 5.576v20.364c0 3.079-2.496 5.576-5.576 5.576h-20.364c-3.079 0-5.576-2.496-5.576-5.576v-20.364c0-3.079 2.496-5.576 5.576-5.576z"></path>
    </symbol>
    <symbol id="accordeon_open" viewBox="0 0 32 32">
      <path fill="currentColor" d="M24 17.33h-6.667v6.667c0 0.354-0.14 0.693-0.391 0.943s-0.589 0.39-0.943 0.39-0.693-0.14-0.943-0.39c-0.25-0.25-0.391-0.589-0.391-0.943v-6.667h-6.667c-0.354 0-0.693-0.14-0.943-0.39s-0.391-0.589-0.391-0.943c0-0.354 0.14-0.693 0.391-0.943s0.589-0.391 0.943-0.391h6.667v-6.667c0-0.354 0.14-0.693 0.391-0.943s0.589-0.391 0.943-0.391 0.693 0.141 0.943 0.391c0.25 0.25 0.391 0.589 0.391 0.943v6.667h6.667c0.354 0 0.693 0.14 0.943 0.391s0.391 0.589 0.391 0.943c0 0.354-0.14 0.693-0.391 0.943s-0.589 0.39-0.943 0.39z"></path>
      <path fill="none" stroke="currentColor" stroke-linejoin="miter" stroke-linecap="butt" stroke-miterlimit="4" stroke-width="0.4848" d="M5.818 0.242h20.364c3.079 0 5.576 2.496 5.576 5.576v20.364c0 3.079-2.496 5.576-5.576 5.576h-20.364c-3.079 0-5.576-2.496-5.576-5.576v-20.364c0-3.079 2.496-5.576 5.576-5.576z"></path>
    </symbol>
    <symbol id="icon-Vector-3" viewBox="0 0 23 32">
      <path  style="fill: var(--color1, #fbfef9)" d="M18.609 2.552c0.134-0.144 0.238-0.314 0.307-0.5s0.102-0.383 0.097-0.582c-0.006-0.199-0.049-0.394-0.129-0.576s-0.193-0.345-0.335-0.481c-0.141-0.136-0.308-0.243-0.49-0.314s-0.375-0.104-0.57-0.099c-0.195 0.006-0.386 0.050-0.564 0.132s-0.338 0.197-0.471 0.342l-12.591 13.614c-0.26 0.281-0.405 0.653-0.405 1.039s0.145 0.758 0.405 1.039l12.591 13.615c0.133 0.148 0.293 0.267 0.471 0.351s0.371 0.131 0.567 0.138c0.196 0.007 0.392-0.026 0.575-0.096s0.352-0.178 0.494-0.316c0.143-0.138 0.257-0.303 0.337-0.486s0.123-0.381 0.127-0.581c0.004-0.2-0.030-0.4-0.102-0.586s-0.179-0.357-0.316-0.5l-11.631-12.577 11.631-12.575z"></path>
    </symbol>
    <symbol id="icon-page-up" viewBox="0 0 32 32">
      <path fill="#0c1729" style="fill: var(--color1, #0c1729)" d="M3.879 0h24.242c2.142 0 3.879 1.737 3.879 3.879v24.242c0 2.142-1.737 3.879-3.879 3.879h-24.242c-2.142 0-3.879-1.737-3.879-3.879v-24.242c0-2.142 1.737-3.879 3.879-3.879z"></path>
      <path fill="#fbfef9" style="fill: var(--color2, #fbfef9)" d="M8.987 20.142c-0.083 0.071-0.181 0.126-0.288 0.163s-0.221 0.054-0.336 0.051c-0.115-0.003-0.227-0.026-0.332-0.068s-0.199-0.102-0.278-0.177c-0.079-0.075-0.14-0.163-0.181-0.259s-0.060-0.199-0.057-0.302c0.003-0.103 0.029-0.204 0.076-0.298s0.114-0.179 0.197-0.25l7.85-6.666c0.162-0.138 0.376-0.214 0.599-0.214s0.437 0.077 0.599 0.214l7.851 6.666c0.085 0.070 0.154 0.155 0.202 0.249s0.075 0.196 0.079 0.3c0.004 0.104-0.015 0.207-0.056 0.305s-0.103 0.186-0.182 0.262c-0.079 0.076-0.175 0.136-0.28 0.178s-0.22 0.065-0.335 0.067c-0.116 0.002-0.23-0.016-0.338-0.054s-0.206-0.095-0.289-0.167l-7.252-6.158-7.251 6.158z"></path>
    </symbol>
    <symbol id="addictive_background_mobile_icon" viewBox="0 0 8 32">
      <path fill="#3b3074" style="fill: var(--color1, #3b3074)" d="M0 0l1.534 2.195 2.724 0.965 2.896-0.965 1.309-2.195v32h-8.463v-32z"></path>
    </symbol>

    
  </defs>
</svg>